<?xml version="1.0" standalone="no"?>
<!DOCTYPE svg PUBLIC "-//W3C//DTD SVG 20010904//EN"
 "http://www.w3.org/TR/2001/REC-SVG-20010904/DTD/svg10.dtd">
<svg version="1.0" xmlns="http://www.w3.org/2000/svg"
 width="800.000000pt" height="800.000000pt" viewBox="0 0 800.000000 800.000000"
 preserveAspectRatio="xMidYMid meet">
<metadata>
Created by potrace 1.11, written by Peter Selinger 2001-2013
</metadata>
<g transform="translate(0.000000,800.000000) scale(0.100000,-0.100000)"
fill="#000000" stroke="none">
<path d="M0 4000 l0 -4000 4000 0 4000 0 0 4000 0 4000 -4000 0 -4000 0 0
-4000z m4577 2204 c15 -11 37 -38 48 -60 19 -37 20 -62 23 -621 l3 -583 172 0
c196 0 218 -7 253 -76 16 -34 19 -61 19 -204 0 -147 -2 -169 -21 -204 -35 -67
-64 -76 -256 -76 l-168 0 0 -764 c0 -478 4 -794 11 -843 12 -91 48 -173 87
-199 22 -15 55 -19 182 -24 175 -6 195 -13 224 -78 15 -32 17 -64 14 -193 -3
-144 -5 -156 -27 -188 -40 -56 -66 -61 -298 -61 -248 1 -336 14 -440 65 -182
90 -281 247 -335 530 -20 105 -21 149 -25 933 l-4 822 -78 0 c-90 0 -130 20
-165 80 -19 31 -21 52 -21 200 0 153 2 168 23 208 29 55 68 72 166 72 l74 0 6
98 c3 53 15 304 27 557 21 477 28 535 69 588 31 39 68 46 247 44 146 -2 164
-4 190 -23z m-2595 -105 c10 -5 28 -29 40 -52 l23 -42 0 -1920 0 -1920 -22
-47 c-39 -85 -50 -88 -328 -88 -217 0 -243 2 -271 19 -39 24 -61 71 -74 157
-6 43 -10 636 -10 1591 l0 1521 -72 -19 c-107 -28 -153 -25 -188 9 -42 42 -50
88 -50 287 0 197 7 241 49 287 26 29 53 37 422 134 393 103 432 109 481 83z
m1389 -5 c12 -10 28 -32 38 -49 15 -28 16 -187 19 -1915 3 -1962 3 -1968 -39
-2036 -34 -56 -48 -59 -315 -59 -231 0 -244 1 -271 21 -15 12 -37 36 -48 55
-20 34 -20 54 -23 1622 -1 873 -6 1587 -10 1587 -4 0 -48 -9 -98 -21 -101 -25
-134 -21 -169 17 -36 38 -45 99 -45 290 0 198 8 238 54 283 29 28 68 40 411
130 404 106 453 114 496 75z m2446 -1180 c50 -36 69 -95 123 -379 28 -148 69
-362 90 -475 21 -113 64 -340 95 -505 31 -165 59 -307 62 -315 7 -17 1 -53
137 858 114 764 116 773 185 819 31 21 45 23 186 23 141 0 154 -2 180 -22 38
-29 55 -76 55 -149 0 -37 -46 -300 -115 -663 -442 -2298 -436 -2268 -489
-2409 -108 -288 -235 -387 -494 -387 -156 0 -262 38 -335 119 -49 54 -60 103
-55 236 5 134 29 196 85 223 33 16 39 15 121 -7 162 -43 150 -42 171 -12 29
40 51 127 58 221 7 101 -15 222 -107 606 -33 137 -116 483 -185 769 -69 286
-164 680 -211 875 -67 273 -87 372 -88 430 -1 84 19 140 57 158 14 7 97 10
234 9 196 -2 214 -4 240 -23z"/>
</g>
</svg>
